PathFileType	4	(X/Y/Z)	C:/Users/Carlo/Dropbox/Carlos/SARAH/CongressoMarcha2025/WorkshopOpenSim/C3D/Caso01/Walking 01.c3d.trc
DataRate	CameraRate	NumFrames	NumMarkers	Units	OrigDataRate	OrigDataStartFrame	OrigNumFrames
100.000000	100.000000	4	85	mm	100.000000	46	375
Frame#	Time	PELO			PELA			PELL			PELP			LFEO			LFEA			LFEL			LFEP			LTIO			LTIA			LTIL			LTIP			LFOO			LFOA			LFOL			LFOP			LTOO			LTOA			LTOL			LTOP			RFEO			RFEA			RFEL			RFEP			RTIO			RTIA			RTIL			RTIP			RFOO			RFOA			RFOL			RFOP			RTOO			RTOA			RTOL			RTOP			LASI			RASI			RPSI			LTHI			LKNE			LTIB			LANK			LHEE			LTOE			RTHI			RKNE			RTIB			RANK			RHEE			RTOE			LPSI			LHipAngles			LKneeAngles			LAbsAnkleAngle			LAnkleAngles			RHipAngles			RKneeAngles			RAnkleAngles			RAbsAnkleAngle			LPelvisAngles			RPelvisAngles			LFootProgressAngles			RFootProgressAngles			LHipPower			LKneePower			LAnklePower			RHipPower			RKneePower			RAnklePower			LGroundReactionForce			LNormalisedGRF			LAnkleForce			RAnkleForce			RKneeForce			LKneeForce			RHipForce			LHipForce			LGroundReactionMoment			LAnkleMoment			RAnkleMoment			RKneeMoment			LKneeMoment			RHipMoment			LHipMoment			
		X1	Y1	Z1	X2	Y2	Z2	X3	Y3	Z3	X4	Y4	Z4	X5	Y5	Z5	X6	Y6	Z6	X7	Y7	Z7	X8	Y8	Z8	X9	Y9	Z9	X10	Y10	Z10	X11	Y11	Z11	X12	Y12	Z12	X13	Y13	Z13	X14	Y14	Z14	X15	Y15	Z15	X16	Y16	Z16	X17	Y17	Z17	X18	Y18	Z18	X19	Y19	Z19	X20	Y20	Z20	X21	Y21	Z21	X22	Y22	Z22	X23	Y23	Z23	X24	Y24	Z24	X25	Y25	Z25	X26	Y26	Z26	X27	Y27	Z27	X28	Y28	Z28	X29	Y29	Z29	X30	Y30	Z30	X31	Y31	Z31	X32	Y32	Z32	X33	Y33	Z33	X34	Y34	Z34	X35	Y35	Z35	X36	Y36	Z36	X37	Y37	Z37	X38	Y38	Z38	X39	Y39	Z39	X40	Y40	Z40	X41	Y41	Z41	X42	Y42	Z42	X43	Y43	Z43	X44	Y44	Z44	X45	Y45	Z45	X46	Y46	Z46	X47	Y47	Z47	X48	Y48	Z48	X49	Y49	Z49	X50	Y50	Z50	X51	Y51	Z51	X52	Y52	Z52	X53	Y53	Z53	X54	Y54	Z54	X55	Y55	Z55	X56	Y56	Z56	X57	Y57	Z57	X58	Y58	Z58	X59	Y59	Z59	X60	Y60	Z60	X61	Y61	Z61	X62	Y62	Z62	X63	Y63	Z63	X64	Y64	Z64	X65	Y65	Z65	X66	Y66	Z66	X67	Y67	Z67	X68	Y68	Z68	X69	Y69	Z69	X70	Y70	Z70	X71	Y71	Z71	X72	Y72	Z72	X73	Y73	Z73	X74	Y74	Z74	X75	Y75	Z75	X76	Y76	Z76	X77	Y77	Z77	X78	Y78	Z78	X79	Y79	Z79	X80	Y80	Z80	X81	Y81	Z81	X82	Y82	Z82	X83	Y83	Z83	X84	Y84	Z84	X85	Y85	Z85	

47	0.46	110.447982788086	950.4379882812505	-2232.485839843751	107.410385131836	946.7392578125005	-2103.648437500001	239.3239746093751	948.4077148437505	-2229.505615234376	112.3913574218751	1079.29541015625	-2228.740722656251	216.9774780273439	574.5373535156252	-2040.368041992188	173.6388092041016	761.1687011718752	-1663.631591796876	635.2952270507815	631.5969238281252	-2020.512695312501	174.8848419189454	949.441040039063	-2230.933593750001	222.3910980224611	199.5900421142579	-2264.315917968751	154.5549926757813	-11.78294372558594	-1912.061767578126	633.164489746094	169.1740722656251	-2203.461669921876	217.2303009033204	557.024841308594	-2050.828125000001	235.6167144775392	120.3413391113282	-2130.691894531251	226.6993103027345	316.5084838867189	-2036.566528320313	453.186462402344	127.4562911987305	-2124.907714843751	237.751922607422	214.6201477050782	-2326.976562500001	234.9049530029298	88.91506195068362	-2065.263916015626	231.932342529297	154.3040771484376	-2033.888671875001	307.4281616210939	91.28679656982425	-2063.335693359376	235.6167755126954	120.3413543701172	-2130.691894531251	52.14269638061526	524.1898193359377	-2240.010986328126	71.57978820800784	518.500915527344	-1813.160156250001	478.9872741699221	530.586120605469	-2259.362548828126	46.01119232177736	951.434936523438	-2234.037597656251	55.40608596801761	91.25711059570315	-2353.282470703126	22.30977249145509	-16.86368560791016	-1940.989501953126	481.629089355469	85.886589050293	-2320.476318359376	52.28854751586917	504.8415832519534	-2245.073242187501	37.83406448364259	77.06959533691409	-2199.343261718751	39.4934425354004	294.3635864257814	-2199.092773437501	255.0776672363282	75.40520477294925	-2194.663818359376	42.51526641845705	77.28430175781253	-2416.593017578126	36.27368164062501	76.99802398681643	-2126.926513671876	36.82680892944337	149.4293518066407	-2126.843017578126	108.688217163086	76.443229675293	-2125.366699218751	37.83408737182619	77.06959533691409	-2199.343261718751	218.389862060547	1044.399291992188	-2180.073730468751	3.210990905761721	1047.789184570313	-2185.049804687501	66.76352691650393	1053.349609375	-2378.335937500001	305.3775024414064	779.1714477539067	-2131.572509765626	274.3818664550782	582.367370605469	-2037.643432617188	284.3397827148439	368.6434631347657	-2150.943847656251	267.2796020507814	196.2662353515626	-2257.665527343751	225.5635681152345	183.8125305175782	-2336.494384765626	226.8468627929689	92.01908111572268	-2131.576660156251	-65.32313537597659	802.148071289063	-2230.957519531251	-4.792438030242922	523.336608886719	-2237.429687500001	-20.01341629028321	369.6630859375001	-2286.326660156251	9.046873092651371	91.84123992919925	-2356.850585937501	56.23996353149417	58.27353286743167	-2430.532958984376	47.09344482421876	59.1648864746094	-2204.568603515626	179.4091186523438	1049.653564453125	-2371.617675781251	-7.119678497314457	5.137010097503664	28.51222038269044	7.337443351745609	11.04675960540772	57.59461212158206	0	0	5.199512481689455	2.496007919311524	-8.840946197509769	5.262167930603029	1.705618143081666	3.944924354553224	0.8241820931434636	0.2444038093090058	-7.168403148651127	13.86400413513184	-0.2788752913475038	3.167442321777346	14.63372993469239	0	0	14.61085510253907	-0.8636868000030522	1.350243091583252	1.664862155914308	0.8636868000030522	-1.350243091583252	1.664862155914308	-2.347047805786134	0.5618138909339907	-64.34422302246097	-0.4376498162746432	-1.234377026557923	-89.94337463378909	0	-0.154926210641861	0	0	0.1646272540092469	0	0	0.01414815522730351	0	0	-0.07955931127071383	0	0	-0.02783649042248727	0	0	0.01211549434810878	0	nan	nan	nan	nan	nan	nan	0.017536835744977	-0.0319780930876732	-0.2221197187900544	0.001317617832683027	0.002973678987473251	-0.1400824487209321	0.009201948530972007	0.553397595882416	-0.0879175812005997	-0.03175268322229387	0.3503000140190126	-0.2244474440813066	0.02540896087884904	1.257787823677063	0.1920493692159654	0.1048375070095063	0.7713610529899602	-0.05558381974697116	nan	nan	nan	2.652692891464814e-15	7.448282718658451	-29.39904975891115	4.644433189283551e-17	0.5695256590843203	-14.95537281036378	-3.929514884948732	0.412748456001282	-21.14301109313966	-18.279691696167	6.553504467010502	26.99488258361818	-15.4832582473755	1.88229525089264	-34.58681869506837	16.49221420288087	24.57112503051759	90.25633239746097	
48	0.47	110.7100219726563	949.6854858398442	-2216.252197265626	106.5999069213868	945.6281738281255	-2087.455322265626	239.5622100830079	948.0559082031255	-2212.191650390626	112.2101745605469	1078.537719726563	-2212.145263671876	215.6886444091798	576.9511718750002	-2019.385375976563	165.1126708984376	766.879821777344	-1646.171508789063	632.4821777343752	636.187927246094	-1993.049316406251	175.1343688964844	948.8886718750005	-2214.160156250001	221.5399780273439	187.6860961914063	-2218.204589843751	157.084213256836	-0.3588714599609376	-1851.931396484376	633.226501464844	163.2731018066407	-2158.290771484376	215.9617462158204	558.785339355469	-2028.663574218751	234.7441406250001	118.2417602539063	-2079.230712890626	226.0825195312501	320.6821289062501	-1999.458984375001	452.3240356445315	125.5136489868165	-2074.060058593751	236.8870849609376	198.1521148681642	-2281.790283203126	234.0298614501954	91.60498046875003	-2011.711181640626	231.1426849365236	159.0851135253907	-1985.120605468751	306.5565185546876	94.028923034668	-2009.987670898438	234.7441558837892	118.2417831420899	-2079.231201171876	52.28445053100589	523.3235473632815	-2234.458740234376	68.27730560302737	507.4432678222659	-1807.548583984376	479.4478759765627	529.9168090820315	-2250.215820312501	46.28568267822267	950.4824218750005	-2218.344482421876	55.51251983642581	91.35662078857425	-2352.501464843751	18.05533981323243	-21.24443054199219	-1941.472167968751	481.6752014160159	84.44596099853518	-2315.558349609376	52.42860031127933	504.0313415527346	-2239.730712890626	37.7544631958008	76.8224792480469	-2198.615478515626	39.7465057373047	294.1124267578126	-2197.835449218751	254.9902343750001	74.81331634521487	-2193.708984375001	42.66790771484376	77.5573425292969	-2415.859130859376	36.11667251586915	76.57753753662112	-2126.200927734376	36.78068923950197	149.0075225830079	-2125.940917968751	108.5285797119141	75.90781402587893	-2124.565429687501	37.75448608398439	76.82249450683597	-2198.615478515626	217.8965301513673	1043.846557617188	-2162.680908203126	2.776753664016725	1046.567138671875	-2169.460205078126	68.32358551025393	1052.966064453125	-2362.106201171876	305.2878723144532	781.3247070312505	-2111.248779296876	272.9995422363282	585.0964355468752	-2015.763671875001	283.4507446289064	364.0559082031251	-2116.760986328126	266.4883117675782	185.0206604003907	-2211.662841796876	224.6431121826173	166.9688415527344	-2289.454101562501	225.9290008544923	90.25937652587893	-2078.531250000001	-64.71015930175784	801.1641235351567	-2219.740478515626	-4.670036792755129	522.4443969726565	-2232.357666015626	-19.8284091949463	369.472625732422	-2283.177490234376	9.192303657531742	92.10774230957034	-2356.516601562501	56.31422805786136	58.441764831543	-2430.406982421876	47.02053833007814	59.02507400512698	-2204.373046875001	180.8560180664063	1049.370361328125	-2354.501708984376	-6.994737625122074	5.646506309509279	29.3163471221924	8.060992240905765	9.377154350280765	54.39268875122073	0	0	5.533356189727785	2.380074501037599	-8.36662578582764	5.593080520629885	1.459255695343018	3.975641727447512	-0.38159915804863	0.1169752702116967	-7.293707847595218	13.12804317474366	-0.3852666616439822	3.661457777023317	15.12706565856934	0	0	15.09546089172364	-0.6666877865791323	1.827047467231751	1.825644731521607	0.6666877865791323	-1.827047467231751	1.825644731521607	-2.27965807914734	0.5638302564620974	-68.47062683105472	-0.525404751300812	-1.295624017715455	-89.80619812011722	0	-0.138541653752327	0	0	0.1069716885685921	0	0	0.01209049858152867	0	0	-0.06423407793045047	0	0	-0.03079998493194581	0	0	0.01240963209420443	0	nan	nan	nan	nan	nan	nan	0.02304968237876893	-0.0430254675447941	-0.2465931475162507	0.001652133301831783	0.001312359352596105	-0.1400888860225678	0.01336919981986285	0.5496455430984499	-0.09081718325614932	-0.01627129130065442	0.4146554470062258	-0.2557209432125093	0.03970811888575555	1.249811887741089	0.1746526062488556	0.1387209296226502	0.8124529123306279	-0.04630672186613084	nan	nan	nan	1.515824539659642e-15	8.122334480285648	-31.2183303833008	-2.460994406545471e-16	0.8207136392593388	-14.86565113067628	-5.050969123840334	0.6411108374595644	-24.59808731079103	-14.64251041412354	7.233547210693363	14.87061119079591	-21.42685508728028	2.424341917037965	-27.65275955200197	29.36570930480958	18.88859748840333	98.88848114013678	
49	0.48	110.9758529663087	948.4902343750005	-2199.909179687501	105.8280487060547	944.0188598632817	-2071.163085937501	239.794403076172	947.1666870117192	-2194.804443359376	112.1205139160157	1077.332397460938	-2195.388671875001	214.5080718994142	578.273864746094	-1999.372314453126	157.4404602050782	770.5112304687505	-1629.134643554688	629.8396606445315	639.502380371094	-1967.145507812501	175.3828430175782	947.8461914062505	-2197.294921875001	220.567840576172	176.1396179199219	-2171.269775390626	161.1687622070313	13.15908813476563	-1792.089355468751	633.2505493164065	158.0481262207032	-2114.398681640626	214.7906799316407	559.5177001953127	-2007.390014648438	234.0500030517579	117.0687408447266	-2027.605712890626	225.7332305908204	324.8253479003907	-1962.885742187501	451.6471252441409	124.4965591430665	-2023.487548828126	235.7713775634767	181.8968353271485	-2235.488281250001	233.4761962890626	95.45939636230472	-1958.311401367188	230.7039642333986	164.7115783691407	-1936.738159179688	306.0085754394532	97.93531036376959	-1956.938720703126	234.0499572753907	117.0686874389649	-2027.605468750001	52.44145584106448	522.3013305664065	-2228.701416015626	64.89450836181643	496.302917480469	-1801.998657226563	479.8951416015627	528.922790527344	-2240.772949218751	46.56887817382814	949.1343383789067	-2202.523681640626	55.6706352233887	91.45085906982425	-2351.706298828126	13.96980667114259	-25.79686737060548	-1942.116699218751	481.700134277344	82.95509338378909	-2310.763671875001	52.58554458618167	503.0702209472659	-2234.191650390626	37.67916107177736	76.55933380126956	-2197.881591796876	40.04275512695314	293.8428955078126	-2196.550537109376	254.9042968750001	74.16455078125003	-2192.686767578126	42.8882293701172	77.83341217041018	-2415.115722656251	35.94282531738283	76.134635925293	-2125.470214843751	36.73080444335939	148.5624694824219	-2125.026611328126	108.3512344360352	75.33626556396487	-2123.738769531251	37.67906188964845	76.55928802490237	-2197.881835937501	217.4685974121095	1042.747924804688	-2145.174560546876	2.442402362823487	1044.957275390625	-2153.695556640626	69.87884521484378	1052.225219726563	-2345.726562500001	305.1772460937501	782.5476074218755	-2091.461181640626	271.7195739746095	586.7080078125002	-1994.933105468751	282.588836669922	359.1814270019532	-2082.878417968751	265.5993957519532	174.1654968261719	-2165.063964843751	223.4795989990236	150.5037231445313	-2241.263916015626	225.1971435546876	89.55827331542972	-2025.401489257813	-64.07952880859378	799.9221191406255	-2208.385498046876	-4.529003620147707	521.4187622070315	-2227.092285156251	-19.59160804748536	369.191375732422	-2279.863525390626	9.392998695373539	92.37371063232425	-2356.153320312501	56.45007705688479	58.5922660827637	-2430.265380859376	46.95210266113283	58.87122344970706	-2204.172363281251	182.2935791015626	1048.67138671875	-2337.288818359376	-6.919045925140384	6.08853101730347	29.98515510559083	8.633552551269535	7.424332618713382	50.8985404968262	0	0	5.830405235290529	2.23601794242859	-7.775591373443607	5.88467311859131	1.23438048362732	3.970233201980593	-1.550883650779725	0.003681062953546645	-7.389322280883793	12.42902374267579	-0.484466075897217	4.12157726287842	15.64438915252686	0	0	15.6029167175293	-0.5087139010429385	2.288438796997071	2.00944209098816	0.5087139010429385	-2.288438796997071	2.00944209098816	-2.188849687576295	0.4529274106025698	-72.67991638183597	-0.6234157085418703	-1.373595595359803	-89.66395568847659	0	-0.118442215025425	0	0	0.02460466884076597	0	0	0.009676544927060608	0	0	-0.04797308519482615	0	0	-0.03332578390836717	0	0	0.01275429874658585	0	nan	nan	nan	nan	nan	nan	0.02759798616170885	-0.05627072602510455	-0.2722247540950776	0.001813944661989809	-0.0005099119734950366	-0.1404253989458085	0.01758637838065625	0.5480566620826723	-0.09490854293107992	-0.002477161120623351	0.4863239824771883	-0.2942681014537812	0.0556910187005997	1.247641205787659	0.1540647298097611	0.1691320985555649	0.8777295351028447	-0.03698702156543733	nan	nan	nan	0	8.355442047119144	-33.18370056152345	4.019007486785923e-16	1.118974804878235	-14.75470161437989	-6.040805816650394	0.9118403196334843	-28.36595344543458	-9.705524444580082	7.481679439544681	0.5982873439788821	-27.39229965209962	2.963314056396485	-20.13622474670411	41.19189453125001	12.13125896453858	109.989845275879	
50	0.49	111.2554626464844	946.854370117188	-2183.457031250001	105.0925216674805	941.9071655273442	-2054.772949218751	240.0315856933595	945.7463989257817	-2177.332275390626	112.1263275146485	1075.68115234375	-2178.462646484376	213.4469146728517	578.4691162109377	-1980.306396484376	150.9176940917969	772.097290039063	-1612.405639648438	627.4680175781252	641.3026123046877	-1943.008056640626	175.6407165527344	946.317993164063	-2180.333007812501	219.5131378173829	165.2211456298829	-2123.618408203126	166.8432617187501	28.9835662841797	-1732.999755859376	633.1678466796877	153.3824462890626	-2071.971435546876	213.7298126220704	559.1970214843752	-1986.989746093751	233.5580596923829	117.0176391601563	-1976.005126953126	225.6543121337892	329.0311889648439	-1926.929199218751	451.1755981445315	124.5162429809571	-1973.352294921876	234.4509277343751	166.1571044921876	-2188.149414062501	233.2604370117189	100.6378479003907	-1905.290405273438	230.6258544921876	171.3090209960938	-1888.931762695313	305.7996215820314	103.1373748779297	-1904.406127929688	233.5580596923829	117.0176391601563	-1976.005126953126	52.62152481079104	521.1123657226565	-2222.716552734376	61.47521591186526	485.1001586914065	-1796.480712890626	480.3371276855471	527.589782714844	-2231.053710937501	46.87023162841798	947.390747070313	-2186.581298828126	55.89513015747073	91.54610443115237	-2350.905517578126	10.12862014770508	-30.54608154296876	-1942.938232421876	481.7285156250002	81.43843841552737	-2306.159667968751	52.76758193969729	501.9480285644534	-2228.435546875001	37.60628128051759	76.28079223632815	-2197.152587890626	40.38185882568361	293.5551147460939	-2195.240234375001	254.8170928955079	73.4570236206055	-2191.585449218751	43.19762039184572	78.12136840820315	-2414.373291015626	35.74248504638673	75.66723632812503	-2124.745849609376	36.66767501831056	148.0920410156251	-2124.108154296876	108.146095275879	74.72597503662112	-2122.890136718751	37.60626220703126	76.28089904785159	-2197.152587890626	217.1103515625001	1041.106689453125	-2127.538330078126	2.205307960510255	1042.955688476563	-2137.759521484376	71.43416595458987	1051.130981445313	-2329.193359375001	305.0528869628907	782.7525024414067	-2072.252197265626	270.564178466797	587.137390136719	-1975.160644531251	281.7702636718751	354.1190795898439	-2049.341064453126	264.6443786621095	163.9294891357422	-2117.983398437501	222.1199340820314	134.7116851806641	-2192.027832031251	224.6724243164064	90.09773254394534	-1972.404174804688	-63.42753601074222	798.4121093750005	-2196.877197265626	-4.361120223999025	520.2493896484377	-2221.605712890626	-19.29544067382813	368.8122863769532	-2276.363037109376	9.662618637084964	92.64348602294925	-2355.763427734376	56.66324234008792	58.73081970214847	-2430.103271484376	46.88658905029298	58.70155715942386	-2203.965576171876	183.7310180664063	1047.569702148438	-2319.946289062501	-6.888730525970463	6.416211605072025	30.51902389526369	9.009558677673343	5.234158515930178	47.12938690185548	0	0	6.087315082550052	2.063255786895753	-7.064526557922367	6.134098052978519	1.03005051612854	3.941127061843874	-2.677752017974854	-0.09367051720619204	-7.452381134033207	11.77480411529541	-0.573503375053406	4.53410053253174	16.18770980834962	0	0	16.13566207885743	-0.387019991874695	2.739967346191407	2.220111370086671	0.387019991874695	-2.739967346191407	2.220111370086671	-2.080034255981446	0.2349202483892442	-76.95845794677737	-0.732088088989258	-1.474448680877686	-89.51450347900393	0	-0.09696298837661749	0	0	-0.09133405983448031	0	0	0.007139087654650215	0	0	-0.03405330702662469	0	0	-0.03469592332839967	0	0	0.01312291994690896	0	nan	nan	nan	nan	nan	nan	0.03109627030789854	-0.07273720949888232	-0.2975221276283265	0.001793112955056132	-0.001721314270980657	-0.140965148806572	0.02177615836262704	0.5491730570793154	-0.09877943992614752	0.008652120828628544	0.5634212493896487	-0.3397927880287172	0.07236489653587344	1.253504157066346	0.1345396339893342	0.1920233368873597	0.9673654437065129	-0.02739084139466287	nan	nan	nan	3.600083149342752e-15	8.198084831237797	-35.05123901367189	5.432690917374569e-16	1.438038349151612	-14.58869743347169	-6.845519065856937	1.200008392333985	-31.97857666015626	-3.759228229522707	7.355364322662357	-16.95120239257813	-33.00558090209962	3.455617904663088	-13.48093986511231	50.34265899658206	4.717710971832277	125.1748352050782	
